<svg xmlns="http://www.w3.org/2000/svg" width="5472" height="3072" viewBox="0 0 5472 3072">
  <defs>
    <style>
      .cls-1 {
        fill-rule: evenodd;
      }
    </style>
  </defs>
  <path id="Color_Fill_1" data-name="Color Fill 1" class="cls-1" d="M0,0H5472V3072H0V0ZM3859,3070c0.46-40.86-20.92-67.05-29-101q-3-39.495-6-79-7.995-7.5-16-15v-25l-10-10c-8.03-16.92-9.08-41.07-9-67,34.66-17.43,76.45-37.3,96-70,8.86-14.82,5.08-35.95,10-55q10.995-31.995,22-64c6.35-24.89-3.19-59.6,4-86,3.39-12.46,10.64-28.05,15-40v-24c2.35-11.05,5.07-23.24,8-37,15.64-73.34,26.38-164.56,44-237l3-39c12.42-53.64,16.67-116.53,29-173q0.495-34.5,1-69c3.71-19.18,9.67-36.6,15-53q0.495-10.995,1-22c3-10.31,9.62-19.19,11-33-7-4.95-17.91-12.12-18-24-1.33-1.67-2.67-3.33-4-5-46.23-.9-92.18,6.36-135,14-50.32,8.99-96.1,9.79-143,19q-109.485,13.005-219,26c-95.63,18.28-202.13,28.65-297,40q-96.495,12.495-193,25c-40.89,8.13-85.13,2.92-111,23-27.54,21.37-14.22,30.61-22,70q-4.005,12.495-8,25c-2.8,12.54,7.85,18.35,5,33q-4.5,13.005-9,26,0.495,16.995,1,34-2.505,22.995-5,46c-4.99,29.01-.48,59.44-14,79l-6-6c-21.82-10.74-28.09-47.73-39-70q-7.5-11.505-15-23-3.495-12.495-7-25c-6.98-12.89-21.81-20.28-31-31q-12-16.005-24-32-13.995-5.505-28-11-18.495-10.005-37-20l-66-12c-21.12-4.14-25.09-14.98-52-15,12.01-25.02,43.67-108.34,39-144-2.54-19.44-9-39.41-11-57,22.45-17.02,20.72-57.41,24-91,0.93-9.55,10.9-28.07,5-42-3.18-7.5-14.99-15.49-14-28,1.92-24.39-31.42-53.76-44-70-18.21-23.52-56.36-62.68-83-76-25.43-12.71-59.08-5.32-91-10-20.76-3.04-55.2-3.74-72,3-59.68,23.95-110,71.91-134,132q-4.005,7.005-8,14c-5.41,43.76-5.05,97.6,9,136q7.5,10.995,15,22-1.005,12.495-2,25,10.005,27,20,54,20.505,21.495,41,43v23c-2.07,5.82-44.26,77.57-49,81q-17.505,9.495-35,19c-15.15,10.69-26.56,26.87-43,37q-55.995,31.995-112,64c-12.54,9.24-20.47,25.63-30,38-13.8,17.91-30.11,32.51-43,52-19.17,29-31.44,103.05-15,139q4.005,3.495,8,7,3,14.505,6,29,7.995,9,16,18c-0.41,22.02-1.65,45.73,3,64l12,33q1.995,22.5,4,45,21,38.49,42,77l23,29q6,19.005,12,38v37q7.005,9.495,14,19l6,24,41,44c3.5,7.53,1.76,10.51,6,16q6.495,7.005,13,14c8.96,22.25-8.23,43.97,0,65,14.24,36.4,4.74,68.97-1,102-5.01,28.84-1.42,63.03,2,88,14.97,0.26,54.85,1.86,63-4,6.35-4.57,10.35-13.56,19-16,33.02-9.31,66.86-6.88,99-16q17.505-8.505,35-17,21.495-1.005,43-2c25.28-7.43,41.87-22.31,65-31q22.5-4.005,45-8l50-19q17.505-4.005,35-8,10.5-9.495,21-19,10.005,9.495,20,19,10.5,0.495,21,1c13.43,3.01,35.43,12.5,56,7q18-6.495,36-13c21.52-4.34,31.99,5.04,47,7-10.16,17.12-9.15,94.37-4,119h250q33.99-13.5,68-27c38.78-12.26,76.33-23.45,111-38q12.495-3.495,25-7c10.45-5.41,20.02-20.47,30-24,15.04-5.32,32.88-2.58,47-7q24-11.505,48-23c16.02-6.64,24.66-17.02,39-23q11.505-2.505,23-5c8.88-3.61,17.41-10.26,28-13q16.005-3.495,32-7,13.995-12,28-24c15.54-5.44,36.47,2.09,43,7q1.005,30,2,60c1.66,4.06,5.72,6.17,7,13q1.5,24.99,3,50c3.17,19.86-1.65,52.68,6,68h273Z"/>
</svg>
